<svg xmlns="http://www.w3.org/2000/svg" xmlns:xlink="http://www.w3.org/1999/xlink" viewBox="0 0 61 77" fill="#fff" fill-rule="evenodd" stroke="#000" stroke-linecap="round" stroke-linejoin="round"><use xlink:href="#A" x=".5" y=".5"/><symbol id="A" overflow="visible"><g stroke="none" fill="#7f5290" fill-rule="nonzero"><path d="M20.97 16.675h30.54v3.42H20.97zm-.555 7.65h30.54v3.42h-30.54zm-.9 7.635h30.54v3.42h-30.54zm34.38 43.05H0L5.415 8.14H59.31l-5.415 66.87zM3.42 71.59h47.04l5.415-60.015H8.835L3.42 71.59zm15.195-31.995h30.54v3.42h-30.54zm-1.23 15.285h30.54v3.42h-30.54zm.795-7.65h30.54v3.42H18.18zm-1.92 15.285H46.8v3.42H16.26z"/><use xlink:href="#C"/><path d="M9.945 68.47a4.05 4.05 0 0 1-4.035-4.035A4.05 4.05 0 0 1 9.945 60.4a4.05 4.05 0 0 1 4.035 4.035 4.05 4.05 0 0 1-4.035 4.035zm0-6.39c-1.29 0-2.34 1.05-2.34 2.34s1.05 2.34 2.34 2.34 2.34-1.05 2.34-2.34-1.05-2.34-2.34-2.34z"/><use xlink:href="#C" x="-3.885" y="36.99"/><path d="M11.925 49.975A4.05 4.05 0 0 1 7.89 45.94a4.05 4.05 0 0 1 4.035-4.035 4.05 4.05 0 0 1 4.035 4.035 4.05 4.05 0 0 1-4.035 4.035zm0-6.39c-1.29 0-2.34 1.05-2.34 2.34s1.05 2.34 2.34 2.34 2.34-1.05 2.34-2.34-1.05-2.34-2.34-2.34z"/><use xlink:href="#C" x="-1.935" y="18.495"/><path d="M13.845 31.48a4.05 4.05 0 0 1-4.035-4.035 4.05 4.05 0 0 1 4.035-4.035 4.05 4.05 0 0 1 4.035 4.035c0 2.22-1.8 4.035-4.035 4.035zm0-6.39c-1.29 0-2.34 1.05-2.34 2.34s1.05 2.34 2.34 2.34 2.34-1.05 2.34-2.34-1.035-2.34-2.34-2.34zM27.87 11.545c-1.695-1.14-2.715-2.88-2.805-4.74-.075-1.785.675-3.495 2.145-4.785C28.575.82 30.405.1 32.355.01c1.965-.09 3.84.45 5.31 1.53 1.575 1.155 2.475 2.775 2.565 4.575.09 1.875-.78 3.69-2.385 4.995L35.76 8.53c.78-.63 1.2-1.44 1.155-2.265-.03-.765-.465-1.5-1.215-2.055-.855-.63-1.995-.945-3.195-.9-1.2.06-2.31.48-3.105 1.185-.69.615-1.065 1.38-1.02 2.16.03.825.51 1.575 1.35 2.145l-1.86 2.745z"/></g></symbol><defs ><path id="C" d="M14.775 22.225a4.05 4.05 0 0 1-4.035-4.035 4.05 4.05 0 0 1 4.035-4.035 4.05 4.05 0 0 1 4.035 4.035 4.05 4.05 0 0 1-4.035 4.035zm0-6.375c-1.29 0-2.34 1.05-2.34 2.34s1.05 2.34 2.34 2.34 2.34-1.05 2.34-2.34-1.05-2.34-2.34-2.34z"/></defs></svg>